<?xml version="1.0" encoding="UTF-8" standalone="no"?>
<svg
   viewBox="0 0 400 400"
   width="100%"
   height="100%"
   version="1.1"
   id="svg7"
   sodipodi:docname="hob-icon-O.svg"
   inkscape:version="1.4 (e7c3feb1, 2024-10-09)"
   xmlns:inkscape="http://www.inkscape.org/namespaces/inkscape"
   xmlns:sodipodi="http://sodipodi.sourceforge.net/DTD/sodipodi-0.dtd"
   xmlns="http://www.w3.org/2000/svg"
   xmlns:svg="http://www.w3.org/2000/svg">
  <sodipodi:namedview
     id="namedview7"
     pagecolor="#000000"
     bordercolor="#666666"
     borderopacity="1.0"
     inkscape:showpageshadow="2"
     inkscape:pageopacity="0.0"
     inkscape:pagecheckerboard="0"
     inkscape:deskcolor="#d1d1d1"
     inkscape:zoom="17.739936"
     inkscape:cx="139.48754"
     inkscape:cy="146.47742"
     inkscape:window-width="1800"
     inkscape:window-height="1130"
     inkscape:window-x="0"
     inkscape:window-y="39"
     inkscape:window-maximized="0"
     inkscape:current-layer="svg7" />
  <defs
     id="defs6">
    <!-- Gradient for O -->
    <linearGradient
       id="gradientO"
       x1="0%"
       y1="0%"
       x2="100%"
       y2="100%">
      <stop
         offset="0%"
         stop-color="#6ba1d8"
         id="stop1" />
      <stop
         offset="30%"
         stop-color="#a8cff3"
         id="stop2" />
      <stop
         offset="70%"
         stop-color="#cf9a7d"
         id="stop3" />
      <stop
         offset="100%"
         stop-color="#b76e63"
         id="stop4" />
    </linearGradient>
    <!-- Warm Glow for drop -->
    <linearGradient
       id="warmGlow"
       x1="0%"
       y1="100%"
       x2="0%"
       y2="0%">
      <stop
         offset="0%"
         stop-color="#cf9a7d"
         id="stop5" />
      <stop
         offset="100%"
         stop-color="#ffe6c0"
         id="stop6" />
    </linearGradient>
  </defs>
  <!-- Background is transparent -->
  <g
     transform="translate(0, 0)"
     id="g7">
    <!-- Outer 'O' Ring centered at (200, 200) -->
    <circle
       cx="200"
       cy="200"
       r="75"
       stroke="url(#gradientO)"
       stroke-width="26"
       fill="none"
       id="circle6" />
    <!-- Yellow Sun on top-left of the O ring -->
    <g
       transform="translate(138, 138) rotate(135)"
       id="g6">
      <path
         d="m -15.449607,-1.0007149 c 0,-8.8365619 6.6130512,-14.9992781 15.449607,-14.9992781 8.8365558,0 15.2995,6.1627162 15.2995,14.9992781 L 8.9855536,-0.05950717 0.67541665,0.39007786 -5.4256025,0.19432678 -10.277241,-0.24589893 Z"
         fill="#ffd24d"
         filter="drop-shadow(0 0 6px rgba(255, 210, 77, 0.8))"
         id="path6"
         sodipodi:nodetypes="cscccccc" />
    </g>
    <!-- Inner Sprite Core / Glowing drop with Keyhole Cut-out -->
    <path
       d="M 200 160 C 185 185, 175 200, 175 215 C 175 230, 186 242, 200 242 C 214 242, 225 230, 225 215 C 225 200, 215 185, 200 160 Z M 197.5 209.33 A 5 5 0 1 1 202.5 209.33 L 205 221 L 195 221 Z"
       fill="url(#warmGlow)"
       filter="drop-shadow(0 0 12px rgba(255, 230, 192, 0.8))"
       id="path7" />
    <!-- Glowing spark above drop -->
    <circle
       cx="200"
       cy="150"
       r="4"
       fill="#ffe6c0"
       opacity="0.8"
       id="circle7" />
  </g>
</svg>
